<?xml version="1.0" encoding="UTF-8"?>
<!DOCTYPE svg PUBLIC "-//W3C//DTD SVG 1.1//EN" "http://www.w3.org/Graphics/SVG/1.1/DTD/svg11.dtd">
<!-- Creator: CorelDRAW 2017 -->
<svg xmlns="http://www.w3.org/2000/svg" xml:space="preserve" width="343.956mm" height="254mm" version="1.1" style="shape-rendering:geometricPrecision; text-rendering:geometricPrecision; image-rendering:optimizeQuality; fill-rule:evenodd; clip-rule:evenodd"
viewBox="0 0 34396 25400"
 xmlns:xlink="http://www.w3.org/1999/xlink">
 <defs>
  <style type="text/css">
   <![CDATA[
    .str2 {stroke:#DB3A3C;stroke-width:25}
    .str1 {stroke:#D8FFCA;stroke-width:20}
    .str3 {stroke:#DB3A3C;stroke-width:20}
    .str0 {stroke:#DB3A3C;stroke-width:7.62}
    .fil1 {fill:#FEFEFE}
    .fil0 {fill:#DB3A3C}
   ]]>
  </style>
   <clipPath id="id0">
    <rect x="6603" y="1818" width="20612" height="20612"/>
   </clipPath>
 </defs>
 <g id="Capa_x0020_1">
  <metadata id="CorelCorpID_0Corel-Layer"/>
  <path class="fil0 str0" d="M19913 7481l448 518 3135 197c1240,1456 2479,2912 3719,4369 0,2916 -2122,8531 -8153,9576l-5693 -5006 6544 -9654z"/>
  <g style="clip-path:url(#id0)">
   <image x="6603" y="1818" width="20612" height="20612" xlink:href="Baja_Images\Baja_ImgID1.png"/>
  </g>
  <path class="fil1 str1" d="M16491 6349c1243,0 2475,469 3422,1132 310,217 -117,286 -390,791 -254,470 -174,1165 -22,1712 137,494 895,1424 1605,1614 551,147 1245,-122 1261,313 127,3494 -2646,6170 -5876,6170 -3230,0 -5848,-2626 -5848,-5866 0,-3240 2618,-5866 5848,-5866z"/>
  <path class="fil0 str0" d="M15018 13455c600,535 2015,631 2938,17l147 479c547,-69 1320,-83 1711,155 655,367 1099,903 992,2165 -160,195 -751,853 -709,497 77,-640 -125,-1884 -679,-2052 -408,-123 -1319,51 -1698,-145 -293,-151 -278,-499 -426,-725 -434,-663 -1136,-416 -1645,-76 -204,136 -201,872 -545,862 -792,-23 -1029,-52 -1563,118 -586,186 -725,1216 -616,2052 33,251 -587,-417 -702,-651 -87,-739 175,-1455 768,-1837 643,-543 1171,-338 1769,-389 93,-17 93,-409 257,-470z"/>
  <ellipse class="fil0 str2" cx="16473" cy="11227" rx="2680" ry="2629"/>
  <ellipse class="fil1 str3" cx="16487" cy="11269" rx="1979" ry="2006"/>
  <ellipse class="fil1 str1" cx="21891" cy="9185" rx="1990" ry="1905"/>
  <path class="fil0 str0" d="M20949 8786c-319,-270 135,-854 479,-548l428 410 532 -432c310,-288 735,254 450,535l-422 427 448 447c261,280 -193,766 -477,519l-505 -462c-242,211 -311,272 -553,483 -290,251 -644,-223 -370,-512l407 -475c-213,-200 -203,-191 -416,-392z"/>
 </g>
</svg>
