<?xml version="1.0" encoding="UTF-8"?>
<!DOCTYPE svg PUBLIC "-//W3C//DTD SVG 1.1//EN" "http://www.w3.org/Graphics/SVG/1.1/DTD/svg11.dtd">
<!-- Creator: CorelDRAW 2017 -->
<svg xmlns="http://www.w3.org/2000/svg" xml:space="preserve" width="343.956mm" height="254mm" version="1.1" style="shape-rendering:geometricPrecision; text-rendering:geometricPrecision; image-rendering:optimizeQuality; fill-rule:evenodd; clip-rule:evenodd"
viewBox="0 0 34396 25400"
 xmlns:xlink="http://www.w3.org/1999/xlink">
 <defs>
  <style type="text/css">
   <![CDATA[
    .str2 {stroke:white;stroke-width:20}
    .str0 {stroke:#0092D8;stroke-width:7.62}
    .str1 {stroke:white;stroke-width:7.62}
    .fil1 {fill:#FEFEFE}
    .fil0 {fill:#0092D8}
   ]]>
  </style>
   <clipPath id="id0">
    <rect x="8554" y="2755" width="17548" height="17548"/>
   </clipPath>
 </defs>
 <g id="Capa_x0020_1">
  <metadata id="CorelCorpID_0Corel-Layer"/>
  <path class="fil0 str0" d="M16339 10903l3192 -3784 6185 6955c-483,2162 -1680,3350 -2459,3963 -903,721 -1562,1164 -2517,1659 -1015,359 -1528,556 -3048,536l-4961 -4151 4375 -4326 -767 -852z"/>
  <g style="clip-path:url(#id0)">
   <image x="8554" y="2755" width="17548" height="17548" xlink:href="Usuario_Images\Usuario_ImgID1.png"/>
  </g>
  <path class="fil1 str1" d="M20292 11795c-1928,-24 -3856,-48 -5784,-72 0,0 -1824,247 -2035,2038 -52,443 10,983 15,1632 33,831 139,580 728,630l8375 22c586,-17 535,-162 535,-1008 2,-403 0,459 7,-1210 -51,-610 -343,-1815 -1841,-2031z"/>
  <ellipse class="fil1 str2" cx="17263" cy="8356" rx="2350" ry="2572"/>
 </g>
</svg>
